<svg width="59" height="59" viewBox="0 0 59 59" fill="none" xmlns="http://www.w3.org/2000/svg">
<path d="M36.26 24.511C36.26 31.9385 30.2066 37.9596 22.7394 37.9596C20.0787 37.9596 17.5976 37.1951 15.5058 35.8751L9.21875 37.9596L11.3144 31.706C9.98727 29.6254 9.21875 27.1575 9.21875 24.511C9.21875 17.0836 15.2721 11.0625 22.7394 11.0625C30.2066 11.0625 36.26 17.0836 36.26 24.511Z" fill="#7E8AAB" stroke="#626E94" stroke-width="2.5" stroke-linecap="round" stroke-linejoin="round"/>
<path opacity="0.2" d="M29.4994 39.0804C29.4994 44.651 34.0394 49.1668 39.6398 49.1668C41.6353 49.1668 43.4962 48.5935 45.065 47.6034L49.7803 49.1668L48.2085 44.4767C49.2039 42.9162 49.7803 41.0653 49.7803 39.0804C49.7803 33.5099 45.2403 28.994 39.6398 28.994C34.0394 28.994 29.4994 33.5099 29.4994 39.0804Z" fill="#7E8AAB"/>
<path d="M36.26 24.511C36.26 31.9385 30.2066 37.9596 22.7394 37.9596C20.0787 37.9596 17.5976 37.1951 15.5058 35.8751L9.21875 37.9596L11.3144 31.706C9.98727 29.6254 9.21875 27.1575 9.21875 24.511C9.21875 17.0836 15.2721 11.0625 22.7394 11.0625C30.2066 11.0625 36.26 17.0836 36.26 24.511Z" stroke="#626E94" stroke-width="2.5" stroke-linecap="round" stroke-linejoin="round"/>
<path d="M23.5007 37.9363C25.3502 43.1719 30.3645 46.9253 36.2602 46.9253C38.9209 46.9253 41.4021 46.161 43.4938 44.8408L49.7809 46.9253L47.6852 40.6718L48.0052 40.1437C49.1352 38.1787 49.7809 35.9027 49.7809 33.4768C49.7809 26.0494 43.7275 20.0283 36.2602 20.0283L35.7534 20.0375L35.4989 20.051" stroke="#626E94" stroke-width="2.5" stroke-linecap="round" stroke-linejoin="round"/>
</svg>
