<svg width="553" height="718" viewBox="0 0 553 718" fill="none" xmlns="http://www.w3.org/2000/svg">
<g opacity="0.05">
<mask id="mask0_1_9045" style="mask-type:alpha" maskUnits="userSpaceOnUse" x="0" y="0" width="553" height="718">
<rect width="553" height="718" rx="70" fill="#0CA0A2"/>
</mask>
<g mask="url(#mask0_1_9045)">
<path d="M552.846 47.7942C535.948 33.3333 511.224 13.1542 491.599 0.790675M552.846 79.207C517.864 55.0901 482.707 22.8146 445.82 0.659363M552.77 110.383C507.013 74.1246 451.206 34.2898 402.747 0.325027M552.77 141.217C492.142 93.9988 418.486 42.2799 351.098 0.237487M552.693 169.491C480.219 122.307 393.179 57.8482 305.085 0.121134M552.846 198.868C479.694 152.038 346.372 57.2962 257.452 8.96685e-06M552.692 230.222C479.968 183.443 300.441 57.4414 212.04 0.208623M552.616 262.163C480.905 215.989 255.079 57.0218 167.912 0.528993M552.692 294.389C481.902 248.786 205.947 56.9645 119.899 1.1688M552.692 326.846C481.745 281.395 157.837 57.7367 71.5966 2.12804M552.77 359.191C481.688 313.771 111.084 58.6877 24.6796 3.11709M552.538 392.353C490.017 352.23 76.9992 67.3168 0.999969 18.2275M552.692 523.645C498.101 488.665 68.8196 194.4 2.46189 151.603M552.616 424.52C504.755 393.776 60.3907 90.2935 2.21182 52.6801M552.846 654.65C504.985 623.906 60.9486 320.235 2.7697 282.622M552.616 556.398C511.029 530.074 53.0534 215.689 2.50039 183.482M552.538 458.492C518.288 436.703 43.96 110.142 2.32727 83.483M553 688.681C518.75 666.893 44.3255 339.69 2.69275 313.031M552.692 588.977C526.502 572.704 34.5481 235.676 2.71199 215.767M552.616 491.649C532.833 478.959 26.4892 131.337 2.44268 115.812M547.632 717.922C527.849 705.232 26.9124 360.872 2.86586 345.347M552.836 622.208C541.2 614.633 16.7399 256.696 2.59655 247.428M494.907 718C483.27 710.424 17.0092 389.314 2.86586 380.046M438.968 716.138C427.332 708.562 16.9323 426.269 2.78895 417M383.415 714.916C371.778 707.34 17.0284 462.234 2.88511 452.965M331.631 714.336C319.995 706.76 17.1631 499.042 3.01977 489.774M280.616 714.218C268.98 706.643 17.0669 534.266 2.92359 524.998M228.217 714.156C216.58 706.58 17.1631 569.605 3.01977 560.337M181.896 714.22C170.26 706.644 17.0092 600.786 2.86589 591.518M133.575 713.929C121.939 706.354 16.913 633.436 2.7697 624.168M78.022 713.637C66.3854 706.061 16.8405 669.56 2.6972 660.292" stroke="white" stroke-width="8" stroke-miterlimit="1.5" stroke-linecap="round" stroke-linejoin="round"/>
</g>
</g>
</svg>
